<svg width="80" height="43" viewBox="0 0 80 43" fill="none" xmlns="http://www.w3.org/2000/svg">
<path d="M74.775 16.0762H17.873L24.9746 8.9746C27.0762 6.9746 27.0762 3.5762 24.9746 1.5762C22.9746 -0.5254 19.5762 -0.5254 17.5762 1.5762L1.5762 17.5762C-0.5254 19.5762 -0.5254 22.9746 1.5762 24.9746L17.5762 40.9746C18.5762 41.9746 19.9746 42.4746 21.2754 42.4746C22.5762 42.4746 23.9746 41.9746 24.9746 40.9746C27.0762 38.9746 27.0762 35.5762 24.9746 33.5762L17.873 26.4746H74.674C77.5724 26.4746 79.8732 24.0762 79.8732 21.2754C79.8732 18.4746 77.6735 16.0762 74.775 16.0762Z" fill="#0e4136"/>
</svg>
